<svg xmlns="http://www.w3.org/2000/svg" viewBox="0 0 64 64" x="0px" y="0px"><path fill="#C68642" d="M32,3C16.01,3,3,16.01,3,32s13.01,29,29,29,29-13.01,29-29S47.99,3,32,3Zm0,56c-14.89,0-27-12.11-27-27S17.11,5,32,5s27,12.11,27,27-12.11,27-27,27Zm24.76-30.41c-.04-.27-.19-.52-.41-.68-.22-.16-.5-.22-.78-.16-1.04,.21-2.06-.43-2.32-1.44-.26-1.02,.3-2.08,1.29-2.41,.26-.09,.47-.28,.59-.53,.11-.25,.12-.54,.02-.79-.84-2.1-1.98-4.08-3.41-5.91-.17-.22-.42-.36-.7-.38-.28-.03-.55,.06-.76,.25-.78,.7-1.98,.66-2.73-.09-.75-.75-.79-1.95-.09-2.73,.18-.21,.27-.48,.25-.76-.02-.27-.16-.53-.38-.7-1.83-1.42-3.82-2.57-5.91-3.41-.26-.1-.54-.1-.79,.02-.25,.12-.44,.33-.53,.59-.33,.99-1.39,1.55-2.41,1.29-1.02-.27-1.65-1.29-1.44-2.33,.05-.27,0-.55-.16-.78s-.4-.37-.68-.41c-2.27-.32-4.55-.32-6.82,0-.27,.04-.52,.19-.68,.41s-.22,.51-.16,.78c.21,1.03-.43,2.06-1.44,2.32-1.02,.27-2.08-.3-2.41-1.29-.09-.26-.28-.47-.53-.59-.25-.12-.54-.12-.79-.02-2.1,.84-4.09,1.99-5.91,3.41-.22,.17-.36,.42-.38,.7-.03,.28,.06,.55,.25,.76,.7,.78,.66,1.98-.09,2.73-.75,.75-1.94,.79-2.73,.09-.21-.18-.48-.27-.76-.25-.28,.02-.53,.16-.7,.38-1.42,1.83-2.57,3.82-3.41,5.91-.1,.25-.09,.54,.02,.79,.12,.25,.33,.44,.59,.53,.99,.33,1.56,1.39,1.29,2.41-.27,1.02-1.29,1.65-2.33,1.44-.27-.05-.55,0-.78,.16-.22,.16-.37,.4-.41,.68-.16,1.13-.24,2.28-.24,3.41s.08,2.27,.24,3.41c.04,.27,.19,.52,.41,.68,.23,.16,.51,.22,.78,.16,1.03-.21,2.06,.43,2.32,1.44,.26,1.02-.3,2.08-1.29,2.41-.26,.09-.47,.28-.59,.53-.11,.25-.12,.54-.02,.79,.84,2.1,1.99,4.09,3.41,5.91,.17,.22,.42,.36,.7,.38,.28,.02,.55-.07,.76-.25,.78-.7,1.98-.66,2.73,.09,.75,.75,.79,1.95,.09,2.73-.18,.21-.27,.48-.25,.76,.02,.27,.16,.53,.38,.7,1.83,1.42,3.82,2.57,5.91,3.41,.25,.1,.54,.09,.79-.02,.25-.12,.44-.33,.53-.59,.33-.99,1.39-1.56,2.41-1.29,1.02,.27,1.65,1.29,1.45,2.33-.05,.27,0,.55,.16,.78s.4,.37,.68,.41c1.13,.16,2.28,.24,3.41,.24s2.27-.08,3.41-.24c.27-.04,.52-.19,.68-.41s.22-.51,.16-.78c-.21-1.03,.43-2.06,1.44-2.33,1.02-.27,2.08,.3,2.41,1.29,.09,.26,.28,.47,.53,.59,.25,.11,.54,.12,.79,.02,2.1-.84,4.09-1.99,5.91-3.41,.22-.17,.36-.42,.38-.7,.03-.28-.06-.55-.25-.76-.7-.78-.66-1.98,.09-2.73s1.94-.79,2.73-.09c.21,.18,.47,.27,.76,.25,.27-.02,.53-.16,.7-.38,1.42-1.83,2.57-3.82,3.41-5.91,.1-.25,.09-.54-.02-.79-.12-.25-.33-.44-.59-.53-.99-.33-1.56-1.39-1.29-2.41,.27-1.02,1.29-1.66,2.33-1.44,.27,.05,.55,0,.78-.16,.22-.16,.37-.4,.41-.68,.16-1.13,.24-2.28,.24-3.41s-.08-2.27-.24-3.41Zm-1.87,5.63c-1.66,.12-3.13,1.28-3.58,2.97-.43,1.67,.26,3.4,1.62,4.33-.6,1.34-1.35,2.63-2.22,3.85-1.49-.73-3.34-.46-4.57,.77-1.23,1.23-1.5,3.08-.77,4.57-1.22,.88-2.51,1.62-3.85,2.22-.93-1.36-2.66-2.06-4.33-1.62-1.68,.45-2.84,1.91-2.96,3.58-1.49,.15-2.96,.15-4.44,0-.12-1.66-1.28-3.13-2.97-3.58-1.67-.43-3.4,.26-4.33,1.62-1.34-.6-2.63-1.35-3.85-2.22,.72-1.49,.46-3.34-.77-4.57-1.23-1.23-3.08-1.5-4.57-.77-.88-1.22-1.62-2.51-2.22-3.85,1.36-.93,2.06-2.66,1.62-4.33-.44-1.68-1.91-2.84-3.58-2.96-.07-.74-.11-1.49-.11-2.22s.04-1.48,.11-2.22c1.66-.12,3.13-1.28,3.58-2.97,.43-1.67-.26-3.4-1.62-4.33,.6-1.34,1.35-2.63,2.22-3.85,1.49,.72,3.34,.46,4.57-.77s1.5-3.08,.77-4.57c1.22-.88,2.51-1.62,3.85-2.22,.93,1.36,2.66,2.06,4.33,1.62,1.68-.44,2.84-1.91,2.96-3.58,1.49-.15,2.96-.15,4.44,0,.12,1.66,1.28,3.13,2.97,3.58,1.67,.44,3.4-.26,4.33-1.62,1.34,.6,2.63,1.35,3.85,2.22-.72,1.49-.46,3.34,.77,4.57,1.23,1.23,3.08,1.5,4.57,.77,.88,1.22,1.62,2.51,2.22,3.85-1.36,.93-2.06,2.66-1.62,4.33,.44,1.68,1.91,2.84,3.58,2.96,.07,.74,.11,1.49,.11,2.22s-.04,1.48-.11,2.22Zm-1.89-3.22h-16.1c-.04-.2-.11-.38-.18-.57l13.96-8.06c.48-.28,.64-.89,.37-1.37-.28-.48-.89-.64-1.37-.37l-13.96,8.06c-.13-.15-.27-.29-.42-.42l8.06-13.96c.28-.48,.11-1.09-.37-1.37-.48-.28-1.09-.11-1.37,.37l-8.06,13.96c-.19-.06-.37-.14-.57-.18V11c0-.55-.45-1-1-1s-1,.45-1,1V27.1c-.2,.04-.38,.11-.57,.18l-8.06-13.96c-.28-.48-.89-.64-1.37-.37-.48,.28-.64,.89-.37,1.37l8.06,13.96c-.15,.13-.29,.27-.42,.42l-13.96-8.06c-.48-.28-1.09-.11-1.37,.37-.28,.48-.11,1.09,.37,1.37l13.96,8.06c-.06,.19-.14,.37-.18,.57H11c-.55,0-1,.45-1,1s.45,1,1,1H27.1c.04,.2,.11,.38,.18,.57l-13.96,8.06c-.48,.28-.64,.89-.37,1.37,.19,.32,.52,.5,.87,.5,.17,0,.34-.04,.5-.13l13.96-8.06c.13,.15,.27,.29,.42,.42l-8.06,13.96c-.28,.48-.11,1.09,.37,1.37,.16,.09,.33,.13,.5,.13,.35,0,.68-.18,.87-.5l8.06-13.96c.19,.06,.37,.14,.57,.18v16.1c0,.55,.45,1,1,1s1-.45,1-1v-16.1c.2-.04,.38-.11,.57-.18l8.06,13.96c.19,.32,.52,.5,.87,.5,.17,0,.34-.04,.5-.13,.48-.28,.64-.89,.37-1.37l-8.06-13.96c.15-.13,.29-.27,.42-.42l13.96,8.06c.16,.09,.33,.13,.5,.13,.35,0,.68-.18,.87-.5,.28-.48,.11-1.09-.37-1.37l-13.96-8.06c.06-.19,.14-.37,.18-.57h16.1c.55,0,1-.45,1-1s-.45-1-1-1Zm-21,4c-1.65,0-3-1.35-3-3s1.35-3,3-3,3,1.35,3,3-1.35,3-3,3Z"/></svg>