<svg width="12" height="13" viewBox="0 0 12 13" fill="none" xmlns="http://www.w3.org/2000/svg">
<path d="M1 4.66667H11M1 4.66667V10.0446C1 10.7291 1 11.0711 1.13624 11.3326C1.25608 11.5626 1.44717 11.7497 1.68237 11.8669C1.9495 12 2.29937 12 2.99807 12H9.00193C9.70063 12 10.05 12 10.3171 11.8669C10.5523 11.7497 10.744 11.5626 10.8639 11.3326C11 11.0714 11 10.7298 11 10.0466V4.66667M1 4.66667V4.1779C1 3.49339 1 3.15088 1.13624 2.88943C1.25608 2.65946 1.44717 2.47262 1.68237 2.35544C1.94976 2.22222 2.30006 2.22222 3.00012 2.22222H3.5M11 4.66667V4.17589C11 3.49272 11 3.15062 10.8639 2.88943C10.744 2.65946 10.5523 2.47262 10.3171 2.35544C10.0497 2.22222 9.70019 2.22222 9.00012 2.22222H8.5M8.5 1V2.22222M8.5 2.22222H3.5M3.5 1V2.22222" stroke="#E0614B" stroke-width="1.5" stroke-linecap="round" stroke-linejoin="round"/>
</svg>
