<svg width="38" height="26" viewBox="0 0 38 26" fill="none" xmlns="http://www.w3.org/2000/svg">
<path d="M0 0.231445H37.4062V25.7627H0V0.231445Z" fill="#F4F5F4"/>
<path d="M0 0.231445H37.4062V8.70426H0V0.231445Z" fill="#E97403"/>
<path d="M0 17.2959H37.4062V25.7687H0V17.2959Z" fill="#258C05"/>
<path d="M18.7031 9.20312C16.6072 9.20312 14.9091 10.9012 14.9091 12.9972C14.9091 15.0931 16.6072 16.7912 18.7031 16.7912C20.7991 16.7912 22.4972 15.0931 22.4972 12.9972C22.4972 10.9012 20.7991 9.20312 18.7031 9.20312ZM22.2241 13.2347C22.1291 13.2347 22.0519 13.3178 22.0519 13.4128C22.0519 13.4959 22.1112 13.5612 22.1825 13.5791C22.1706 13.6681 22.1528 13.7512 22.1291 13.8344L20.3597 13.2703L19.1603 13.0684C19.1662 13.0506 19.1662 13.0269 19.1662 13.0031L20.3775 13.1278L22.23 12.9972C22.2359 13.0803 22.23 13.1575 22.2241 13.2347ZM22.0578 14.1075C22.0519 14.1075 22.0519 14.1075 22.0459 14.1016C21.9509 14.0778 21.8559 14.1372 21.8322 14.2322C21.8144 14.3153 21.8559 14.3984 21.9272 14.4341C21.8916 14.5172 21.85 14.6003 21.8084 14.6775L20.235 13.68L19.1306 13.1813C19.1425 13.1634 19.1484 13.1397 19.1544 13.1159L20.2944 13.5316L22.1291 13.8581C22.1053 13.9412 22.0816 14.0244 22.0578 14.1075ZM20.2647 16.1441C20.2112 16.0609 20.1044 16.0372 20.0212 16.0906C19.95 16.1381 19.9203 16.2272 19.95 16.3044C19.8728 16.3341 19.7956 16.3578 19.7184 16.3816L19.3028 14.5587L18.8694 13.4306C18.8872 13.4247 18.905 13.4128 18.9287 13.4009L19.4334 14.5053L20.4903 16.0431C20.4191 16.0847 20.3478 16.1263 20.2706 16.1619C20.2706 16.1559 20.2706 16.15 20.2647 16.1441ZM19.3444 16.4528C19.3147 16.3578 19.2197 16.3103 19.1247 16.34C19.0475 16.3637 19 16.4409 19 16.5181C18.9109 16.5241 18.8219 16.53 18.7269 16.53L18.8397 14.6656L18.7387 13.4544C18.7684 13.4544 18.7922 13.4484 18.8219 13.4425L19.0416 14.6359L19.7006 16.3875C19.5878 16.4231 19.4691 16.4469 19.3444 16.4706C19.3444 16.4647 19.3444 16.4587 19.3444 16.4528ZM17.3791 16.0847C17.2959 16.0669 17.2128 16.1084 17.1831 16.1856C17.1178 16.1559 17.0584 16.1203 16.9931 16.0906L18.0025 14.5231L18.5072 13.4187C18.525 13.4306 18.5487 13.4366 18.5725 13.4425L18.1509 14.5825L17.8125 16.4231C17.7116 16.3934 17.6106 16.3637 17.5097 16.3281C17.5156 16.3222 17.5156 16.3103 17.5156 16.3044C17.5334 16.1975 17.4741 16.1084 17.3791 16.0847ZM15.6037 14.3034C15.5562 14.2322 15.4731 14.2084 15.3959 14.2381C15.3662 14.1669 15.3425 14.0897 15.3187 14.0125L17.1297 13.5969L18.2637 13.1575C18.2697 13.1753 18.2816 13.1991 18.2934 13.2169L17.1891 13.7275L15.6631 14.7962C15.6156 14.7191 15.5741 14.6419 15.5325 14.5587C15.5384 14.5528 15.5444 14.5528 15.5503 14.5469C15.6334 14.4934 15.6572 14.3806 15.6037 14.3034ZM15.1822 12.7062H15.2059C15.3009 12.7003 15.3781 12.6172 15.3722 12.5222C15.3662 12.4391 15.3069 12.3737 15.2297 12.3619C15.2416 12.2906 15.2594 12.2134 15.2772 12.1422L17.0466 12.7062L18.2459 12.9081C18.24 12.9259 18.24 12.9497 18.24 12.9734L17.0287 12.8487L15.1762 12.9794C15.1703 12.8844 15.1762 12.7953 15.1822 12.7062ZM15.3662 11.8453C15.3722 11.8453 15.3841 11.8512 15.39 11.8512C15.485 11.8691 15.58 11.8097 15.5978 11.7147C15.6156 11.6316 15.5681 11.5544 15.4969 11.5187C15.5325 11.4475 15.5681 11.3762 15.6037 11.305L17.1653 12.2966L18.2756 12.7953C18.2637 12.8131 18.2578 12.8369 18.2519 12.8606L17.1059 12.445L15.2772 12.1184C15.3069 12.0234 15.3366 11.9344 15.3662 11.8453ZM17.1594 9.85625C17.2128 9.93344 17.3256 9.95719 17.4028 9.90375C17.4741 9.85625 17.4978 9.76719 17.4681 9.69C17.5394 9.66031 17.6106 9.63656 17.6878 9.61875L18.1034 11.4178L18.5428 12.5578C18.525 12.5637 18.5072 12.5756 18.4834 12.5875L17.9787 11.4772L16.9219 9.94531C16.9931 9.90375 17.0703 9.86219 17.1475 9.82656C17.1534 9.83844 17.1534 9.84437 17.1594 9.85625ZM15.2297 13.6444C15.2356 13.6444 15.2475 13.6444 15.2534 13.6384C15.3425 13.6088 15.3959 13.5078 15.3662 13.4187C15.3425 13.3416 15.2653 13.2941 15.1881 13.3C15.1822 13.1991 15.1762 13.1041 15.1762 13.0031L17.0287 13.1219L18.24 13.0269C18.24 13.0566 18.2459 13.0803 18.2519 13.11L17.0584 13.3356L15.3187 13.9887C15.2831 13.87 15.2534 13.7572 15.2297 13.6444ZM18.5844 12.54L18.3587 11.3406L17.7116 9.60688C17.8125 9.57719 17.9134 9.55344 18.0144 9.53562C18.0144 9.5475 18.0203 9.55937 18.0203 9.56531C18.05 9.65437 18.1509 9.70187 18.2459 9.67219C18.3231 9.6425 18.3706 9.56531 18.3587 9.48219C18.4597 9.47031 18.5666 9.46437 18.6734 9.46437L18.5606 11.305L18.6616 12.5222C18.6378 12.5281 18.6141 12.5341 18.5844 12.54ZM19.1484 9.64844C19.2316 9.64844 19.2969 9.595 19.3147 9.51781C19.3978 9.52969 19.4809 9.5475 19.5641 9.57125L18.9881 11.3287L18.7744 12.5281C18.7506 12.5222 18.7328 12.5222 18.7091 12.5222L18.8337 11.305L18.7031 9.46437C18.7922 9.46437 18.8812 9.47031 18.9703 9.47625C18.9762 9.57125 19.0534 9.64844 19.1484 9.64844ZM19.9856 9.87406C20.0628 9.89781 20.1459 9.85625 20.1816 9.79094C20.2587 9.82656 20.33 9.86219 20.4012 9.90375L19.4037 11.4594L18.8991 12.5697C18.8812 12.5578 18.8575 12.5519 18.8337 12.5459L19.2612 11.4L19.5937 9.58312C19.6828 9.60687 19.7719 9.63656 19.8609 9.66625C19.8372 9.75531 19.8966 9.85031 19.9856 9.87406ZM20.7397 10.3075C20.8109 10.3491 20.9 10.3312 20.9534 10.2778C21.0366 10.3431 21.1137 10.4203 21.1909 10.4916L19.8016 11.7087L19.0059 12.635C18.9881 12.6172 18.9644 12.6053 18.9406 12.5875L19.6412 11.59L20.425 9.91562C20.5081 9.96312 20.5912 10.0106 20.6744 10.0641C20.6269 10.1531 20.6566 10.26 20.7397 10.3075ZM21.3572 10.9131C21.4166 10.9725 21.5056 10.9784 21.5709 10.9369C21.6244 11.0081 21.6719 11.0853 21.7194 11.1625L20.0747 12.0116L19.0831 12.7181C19.0712 12.7003 19.0594 12.6825 19.0416 12.6706L19.9916 11.9047L21.2087 10.5094C21.2622 10.5628 21.3097 10.6162 21.3572 10.6697C21.2859 10.735 21.2919 10.8478 21.3572 10.9131ZM21.8025 11.6612C21.8441 11.7325 21.9272 11.7622 22.0044 11.7384C22.0341 11.8156 22.0578 11.8869 22.0816 11.9641L20.2766 12.3797L19.1425 12.8191C19.1366 12.8012 19.1247 12.7775 19.1128 12.7597L20.2172 12.2431L21.7372 11.1803C21.7847 11.2575 21.8262 11.3347 21.8619 11.4119C21.7787 11.4712 21.7491 11.5781 21.8025 11.6612ZM22.1647 12.3025H22.1587C22.0637 12.3322 22.0103 12.4272 22.04 12.5222C22.0637 12.6053 22.1409 12.6528 22.2181 12.6469C22.23 12.7537 22.2359 12.8606 22.2359 12.9734L20.3834 12.8547L19.1722 12.9497C19.1722 12.92 19.1662 12.8962 19.1603 12.8666L20.3597 12.6409L22.0994 11.9878C22.1172 12.0947 22.1469 12.1956 22.1647 12.3025ZM16.4112 10.3134C16.4172 10.3194 16.4231 10.3253 16.4291 10.3372C16.5003 10.4025 16.6131 10.3906 16.6784 10.3194C16.7319 10.2541 16.7319 10.165 16.6903 10.0997C16.7616 10.0522 16.8328 10.0047 16.9041 9.96312L17.7412 11.6137L18.4419 12.6112C18.4241 12.6231 18.4062 12.6409 18.3884 12.6528L17.6166 11.7087L16.2094 10.5034C16.2687 10.4381 16.34 10.3728 16.4112 10.3134ZM16.1856 10.5212L17.4206 11.8987L18.3528 12.6825C18.335 12.7003 18.3231 12.7241 18.3053 12.7478L17.3019 12.0531L15.6156 11.2753C15.6631 11.1862 15.7166 11.1031 15.7759 11.0141C15.7819 11.02 15.7937 11.0259 15.7997 11.0319C15.8887 11.0734 15.9897 11.0378 16.0312 10.9487C16.0669 10.8716 16.0431 10.7825 15.9837 10.735C16.0491 10.6637 16.1144 10.5925 16.1856 10.5212ZM16.0016 15.2713C16.0075 15.2653 16.0194 15.2594 16.0253 15.2534C16.0906 15.1822 16.0847 15.0694 16.0134 15.0041C15.9481 14.9447 15.8591 14.9447 15.7937 14.9922C15.7522 14.9328 15.7166 14.8734 15.6809 14.8141L17.3375 13.9591L18.3231 13.2584C18.335 13.2762 18.3469 13.2941 18.3647 13.3059L17.4206 14.0659L16.1975 15.4731C16.1262 15.4078 16.0609 15.3425 16.0016 15.2713ZM16.2034 15.4969L17.6047 14.2678L18.3944 13.3475C18.4122 13.3653 18.4359 13.3831 18.4597 13.395L17.765 14.3866L16.9753 16.0787C16.8744 16.0253 16.7794 15.96 16.6844 15.8947C16.6903 15.8887 16.6962 15.8828 16.7022 15.8709C16.7437 15.7819 16.7141 15.6809 16.625 15.6334C16.5478 15.5978 16.4587 15.6156 16.4112 15.6809C16.34 15.6216 16.2687 15.5562 16.2034 15.4969ZM18.4062 16.5181C18.4062 16.5122 18.4062 16.5062 18.4062 16.5003C18.4003 16.4053 18.3231 16.3281 18.2222 16.3341C18.1391 16.34 18.0737 16.3994 18.0559 16.4766C17.9787 16.4647 17.9016 16.4469 17.8244 16.4291L18.4062 14.6537L18.6141 13.4603C18.6378 13.4662 18.6616 13.4662 18.6853 13.4662L18.5606 14.6716L18.7031 16.53C18.6022 16.53 18.5072 16.5241 18.4062 16.5181ZM21.0187 15.6631C21.0128 15.6572 21.0069 15.6512 21.0009 15.6453C20.9297 15.58 20.8169 15.58 20.7516 15.6512C20.6922 15.7166 20.6862 15.8116 20.7397 15.8769C20.6684 15.9303 20.5912 15.9778 20.5141 16.0253L19.6709 14.3628L18.9762 13.3712C18.9941 13.3594 19.0119 13.3416 19.0297 13.3237L19.8016 14.2619L21.2206 15.4731C21.1494 15.5444 21.0841 15.6038 21.0187 15.6631ZM21.2325 15.4612L19.9916 14.0719L19.0653 13.2881C19.0831 13.2703 19.095 13.2466 19.1128 13.2228L20.1103 13.9175L21.8025 14.6953C21.7491 14.7903 21.6956 14.8794 21.6362 14.9684C21.6303 14.9625 21.6244 14.9625 21.6184 14.9566C21.5353 14.9091 21.4284 14.9447 21.3809 15.0278C21.3394 15.105 21.3631 15.1941 21.4284 15.2475C21.3572 15.3247 21.2978 15.3959 21.2325 15.4612Z" fill="#07277E"/>
</svg>
