<!DOCTYPE svg PUBLIC "-//W3C//DTD SVG 1.1//EN" "http://www.w3.org/Graphics/SVG/1.1/DTD/svg11.dtd">
<!-- Uploaded to: SVG Repo, www.svgrepo.com, Transformed by: SVG Repo Mixer Tools -->
<svg fill="#e74c3c" height="800px" width="800px" version="1.1" id="Layer_1" xmlns="http://www.w3.org/2000/svg" xmlns:xlink="http://www.w3.org/1999/xlink" viewBox="0 0 511.999 511.999" xml:space="preserve" stroke="#e74c3c">
<g id="SVGRepo_bgCarrier" stroke-width="0"/>
<g id="SVGRepo_tracerCarrier" stroke-linecap="round" stroke-linejoin="round"/>
<g id="SVGRepo_iconCarrier"> <g> <g> <path d="M122.939,213.042l-34.642,9.844c2.17,4.624,4.438,9.203,6.789,13.74c6.971-0.46,14.011,0.233,20.823,2.119 c2.644-6.568,6.38-12.592,10.99-17.858C125.55,218.285,124.224,215.672,122.939,213.042z"/> </g> </g> <g> <g> <path d="M169.6,286.762l-32.385,16.004c1.001,1.323,2.007,2.643,3.02,3.956c8.311-2.01,16.997-2.309,25.511-0.815 c1.595-5.425,3.912-10.575,6.857-15.325C171.598,289.313,170.594,288.041,169.6,286.762z"/> </g> </g> <g> <g> <path d="M240.22,263.947l-2.816-4.535l-37.169,23.081c-11.798,7.327-19.876,19.405-22.161,33.14l-1.328,7.985L169,321.269 c-13.324-4.041-27.731-2.155-39.53,5.171l-37.169,23.081l2.816,4.535c6.837,11.009,17.599,18.761,30.303,21.827 c12.715,3.068,25.731,1.024,36.648-5.756l62.873-39.045C247.612,317.004,254.465,286.886,240.22,263.947z"/> </g> </g> <g> <g> <path d="M194.08,204.16l-2.356-4.768l-39.224,19.383c-12.451,6.152-21.657,17.395-25.259,30.844l-2.095,7.819l-7.483-3.086 c-12.869-5.309-27.394-4.824-39.844,1.328l-39.225,19.384l2.356,4.768c5.742,11.621,15.707,20.378,28.058,24.661 c12.364,4.286,25.516,3.511,37.036-2.181l66.351-32.789c11.52-5.694,20.125-15.67,24.229-28.094 C200.726,229.015,199.822,215.781,194.08,204.16z"/> </g> </g> <g> <g> <path d="M97.304,95.184c-5.555-19.55-17.9-36.478-34.815-47.745l-11.354-7.562L45.453,52.28 c-8.465,18.478-10.062,39.368-4.507,58.917c4.055,14.272,11.723,27.124,22.117,37.399c7.128,0.77,14.119,2.75,20.645,5.92 c3.883-6.128,8.789-11.487,14.45-15.892C101.596,124.42,101.361,109.456,97.304,95.184z"/> </g> </g> <g> <g> <path d="M166.775,134.991l-1.535-5.403l-41.93,11.915c-13.36,3.796-24.45,13.185-30.428,25.759l-3.476,7.31l-6.8-4.39 c-11.697-7.552-26.067-9.704-39.426-5.909L0,176.541l1.535,5.403c7.242,25.485,35.181,40.819,61.011,33.477l71.191-20.229 c12.356-3.51,22.603-11.737,28.852-23.161C168.833,160.619,170.32,147.464,166.775,134.991z"/> </g> </g> <g> <g> <path d="M337.683,439.666c-15.902-10.841-34.445-24.234-54.079-39.89c11.544-10.205,23.186-21.073,34.676-32.569l-30.979-19.238 c-10.395,10.141-20.897,19.756-31.302,28.813c-10.405-9.057-20.906-18.672-31.302-28.813l-30.979,19.238 c11.492,11.495,23.132,22.364,34.676,32.569c-19.634,15.656-38.177,29.048-54.079,39.89c-8.109,5.529-10.201,16.583-4.672,24.693 c3.44,5.046,9.02,7.762,14.699,7.762c3.447,0,6.93-1.001,9.994-3.09c18.006-12.276,39.232-27.684,61.664-45.883 c22.431,18.199,43.656,33.606,61.664,45.883c3.064,2.089,6.547,3.09,9.994,3.09c5.678,0,11.259-2.716,14.699-7.762 C347.885,456.25,345.793,445.194,337.683,439.666z"/> </g> </g> <g> <g> <path d="M342.401,286.76c-0.995,1.281-1.999,2.552-3.004,3.821c2.945,4.752,5.262,9.901,6.857,15.325 c8.514-1.494,17.201-1.195,25.513,0.814c1.013-1.313,2.018-2.632,3.02-3.956L342.401,286.76z"/> </g> </g> <g> <g> <path d="M389.063,213.042c-1.287,2.63-2.612,5.243-3.963,7.845c4.611,5.266,8.346,11.29,10.99,17.858 c6.812-1.886,13.853-2.579,20.825-2.121c2.352-4.536,4.619-9.116,6.79-13.739L389.063,213.042z"/> </g> </g> <g> <g> <path d="M382.529,326.441c-11.797-7.327-26.206-9.211-39.53-5.171l-7.747,2.349l-1.328-7.985 c-2.284-13.734-10.361-25.813-22.16-33.14l-37.169-23.082l-2.816,4.535c-14.246,22.939-7.393,53.057,15.278,67.135l62.873,39.045 c10.919,6.781,23.936,8.822,36.647,5.756c12.705-3.065,23.467-10.816,30.303-21.827l2.816-4.535L382.529,326.441z"/> </g> </g> <g> <g> <path d="M434.178,255.678c-12.45-6.151-26.973-6.637-39.844-1.328l-7.481,3.087l-2.095-7.819 c-3.602-13.449-12.808-24.691-25.259-30.844l-39.224-19.383l-2.356,4.768c-5.742,11.621-6.646,24.855-2.546,37.268 c4.105,12.424,12.709,22.401,24.229,28.094l66.35,32.788c11.52,5.691,24.673,6.466,37.036,2.181 c12.352-4.283,22.316-13.04,28.058-24.661l2.356-4.768L434.178,255.678z"/> </g> </g> <g> <g> <path d="M466.548,52.281l-5.682-12.403l-11.354,7.562c-16.916,11.265-29.26,28.195-34.815,47.745 c-4.055,14.272-4.292,29.235-0.854,43.441c5.658,4.402,10.564,9.762,14.449,15.89c6.525-3.17,13.516-5.15,20.647-5.92 c10.393-10.274,18.061-23.127,22.116-37.397C476.609,91.649,475.011,70.759,466.548,52.281z"/> </g> </g> <g> <g> <path d="M468.816,164.271c-13.36-3.795-27.729-1.642-39.424,5.909l-6.8,4.39l-3.476-7.31 c-5.977-12.574-17.068-21.963-30.428-25.759l-41.93-11.915l-1.535,5.403c-3.545,12.472-2.058,25.627,4.186,37.041 c6.249,11.424,16.496,19.649,28.852,23.161l71.192,20.23c25.828,7.337,53.768-7.992,61.011-33.478l1.535-5.403L468.816,164.271z"/> </g> </g> </g>
</svg>